<?xml version="1.0" encoding="UTF-8" standalone="no"?>
<!-- Created with Inkscape (http://www.inkscape.org/) -->

<svg
   width="77.719284mm"
   height="25.708637mm"
   viewBox="0 0 77.719284 25.708637"
   version="1.1"
   id="svg1"
   xml:space="preserve"
   sodipodi:docname="automatic-save-0-2026_01_20_20_34_53-18072-1.svg"
   xmlns:inkscape="http://www.inkscape.org/namespaces/inkscape"
   xmlns:sodipodi="http://sodipodi.sourceforge.net/DTD/sodipodi-0.dtd"
   xmlns:xlink="http://www.w3.org/1999/xlink"
   xmlns="http://www.w3.org/2000/svg"
   xmlns:svg="http://www.w3.org/2000/svg"><sodipodi:namedview
     id="namedview1"
     pagecolor="#ffffff"
     bordercolor="#000000"
     borderopacity="0.25"
     inkscape:showpageshadow="2"
     inkscape:pageopacity="0.0"
     inkscape:pagecheckerboard="0"
     inkscape:deskcolor="#d1d1d1"
     inkscape:document-units="mm"
     showgrid="true"><inkscape:grid
       id="grid81"
       units="px"
       originx="-806.01666"
       originy="-416.60019"
       spacingx="0.26458333"
       spacingy="0.26458333"
       empcolor="#0099e5"
       empopacity="0.30196078"
       color="#0099e5"
       opacity="0.14901961"
       empspacing="16"
       enabled="false"
       visible="true" /><inkscape:page
       x="0"
       y="0"
       width="77.719284"
       height="25.708637"
       id="page2"
       margin="0"
       bleed="0" /></sodipodi:namedview><defs
     id="defs1"><linearGradient
       id="linearGradient300"
       inkscape:collect="always"><stop
         style="stop-color:#173ac4;stop-opacity:1;"
         offset="0"
         id="stop298" /><stop
         style="stop-color:#212e5f;stop-opacity:1;"
         offset="0.14632539"
         id="stop299" /><stop
         style="stop-color:#03070c;stop-opacity:1;"
         offset="1"
         id="stop300" /></linearGradient><linearGradient
       id="linearGradient5570"
       inkscape:collect="always"><stop
         style="stop-color:#6d6d6d;stop-opacity:1;"
         offset="0"
         id="stop5570" /><stop
         style="stop-color:#ffffff;stop-opacity:1;"
         offset="0.27665287"
         id="stop5574" /><stop
         style="stop-color:#515151;stop-opacity:1;"
         offset="0.64814204"
         id="stop5584" /><stop
         style="stop-color:#e7e7e7;stop-opacity:1;"
         offset="1"
         id="stop5571" /></linearGradient><filter
       inkscape:collect="always"
       style="color-interpolation-filters:sRGB"
       id="filter287"
       x="-0.014058806"
       y="-0.045171472"
       width="1.0281177"
       height="1.0903435"><feGaussianBlur
         inkscape:collect="always"
         stdDeviation="0.27544504"
         id="feGaussianBlur287" /></filter><filter
       inkscape:collect="always"
       style="color-interpolation-filters:sRGB"
       id="filter288"
       x="-0.0097835796"
       y="-0.036107044"
       width="1.0195742"
       height="1.0722337"><feGaussianBlur
         inkscape:collect="always"
         stdDeviation="0.16537118"
         id="feGaussianBlur288" /></filter><linearGradient
       inkscape:collect="always"
       xlink:href="#linearGradient300"
       id="linearGradient294"
       gradientUnits="userSpaceOnUse"
       x1="808.11884"
       y1="455.10825"
       x2="808.11884"
       y2="474.36594"
       gradientTransform="translate(0.26458333,-36.115625)" /><linearGradient
       inkscape:collect="always"
       xlink:href="#linearGradient5570"
       id="linearGradient295"
       gradientUnits="userSpaceOnUse"
       x1="805.75214"
       y1="465.57013"
       x2="883.47137"
       y2="465.57013"
       gradientTransform="translate(0.26458333,-36.115625)" /><linearGradient
       inkscape:collect="always"
       xlink:href="#linearGradient5570"
       id="linearGradient296"
       gradientUnits="userSpaceOnUse"
       x1="805.75214"
       y1="465.57013"
       x2="883.47137"
       y2="465.57013"
       gradientTransform="translate(0.26458333,-36.115625)" /><linearGradient
       inkscape:collect="always"
       xlink:href="#linearGradient300"
       id="linearGradient2"
       gradientUnits="userSpaceOnUse"
       gradientTransform="translate(0.26458333,-36.115625)"
       x1="808.11884"
       y1="455.10825"
       x2="808.11884"
       y2="474.36594" /></defs><g
     inkscape:label="Слой 1"
     inkscape:groupmode="layer"
     id="layer1"
     transform="translate(-806.01669,-416.6002)"><rect
       style="opacity:1;fill:#060f36;fill-opacity:1;stroke:url(#linearGradient296);stroke-width:1.2;stroke-linecap:round;stroke-linejoin:round;stroke-dasharray:none;stroke-dashoffset:0;stroke-opacity:1"
       id="rect292"
       width="76.519264"
       height="24.508615"
       x="806.6167"
       y="417.2002"
       ry="3.5546846" /><path
       id="path292"
       style="opacity:1;fill:url(#linearGradient2);fill-opacity:1;stroke:url(#linearGradient295);stroke-width:0.6;stroke-linecap:round;stroke-linejoin:round;stroke-dasharray:none;stroke-dashoffset:0;stroke-opacity:1"
       d="m 879.35247,419.29454 c -13.84727,0.0466 -27.69876,0.004 -41.54766,0.0218 -9.33208,0.0106 -18.66867,-0.009 -27.99791,0.0473 -1.03441,0.26783 -1.23299,1.51197 -1.07348,2.41798 0.0191,5.59866 -0.0559,11.1982 0.0663,16.79609 0.33676,1.08167 1.66225,1.14746 2.59687,1.01371 22.81407,7.3e-4 45.62815,0.0161 68.44219,-0.0254 1.10668,-0.18893 1.35799,-1.50249 1.17941,-2.43633 -0.0484,-5.6458 0.11169,-11.30618 -0.11105,-16.94258 -0.25887,-0.58579 -0.93235,-0.92229 -1.55469,-0.89257 z" /><path
       id="path293"
       style="opacity:1;mix-blend-mode:normal;fill:none;fill-opacity:1;stroke:#000000;stroke-width:0.8;stroke-linecap:round;stroke-linejoin:round;stroke-dasharray:none;stroke-dashoffset:0;stroke-opacity:1;filter:url(#filter287)"
       d="m 809.85833,417.74571 c -1.6751,0.12699 -2.91961,1.79676 -2.71289,3.43711 0.013,5.76362 -0.026,11.5287 0.0195,17.2914 0.12679,1.67102 1.79525,2.91304 3.43125,2.70508 23.08625,-0.009 46.17333,0.0183 69.25906,-0.0137 1.69154,-0.10171 2.9606,-1.78476 2.7511,-3.43708 -0.0208,-5.79554 0.0416,-11.59532 -0.0312,-17.38823 -0.17639,-1.67881 -1.89098,-2.83537 -3.51956,-2.61021 -23.05292,0.009 -46.10668,-0.0185 -69.15906,0.0139 z" /><path
       id="path294"
       style="opacity:1;mix-blend-mode:normal;fill:none;fill-opacity:1;stroke:#000000;stroke-width:0.6;stroke-linecap:round;stroke-linejoin:round;stroke-dasharray:none;stroke-dashoffset:0;stroke-opacity:1;filter:url(#filter288)"
       d="m 868.9677,419.84532 c -19.69074,0.0135 -39.38163,-0.0345 -59.07226,0.0469 -0.96948,0.41817 -0.58833,1.66388 -0.63253,2.48867 0.0126,5.3638 -0.0448,10.72827 0.0642,16.09141 0.47855,0.94243 1.72628,0.54439 2.57031,0.5899 22.62566,0.003 45.25132,0.0125 67.87696,-0.0255 0.93789,-0.26633 0.75609,-1.45926 0.71442,-2.20625 -0.037,-5.4989 0.10039,-11.00009 -0.107,-16.49687 -0.59721,-0.84567 -1.77648,-0.39325 -2.64297,-0.50645 -2.9237,0.006 -5.8474,0.0121 -8.7711,0.0182 z" /><path
       id="path296"
       style="opacity:1;fill:url(#linearGradient294);fill-opacity:1;stroke:none;stroke-width:0.6;stroke-linecap:round;stroke-linejoin:round;stroke-dasharray:none;stroke-dashoffset:0;stroke-opacity:1"
       d="m 879.35247,419.29454 c -13.84727,0.0466 -27.69876,0.004 -41.54766,0.0218 -9.33208,0.0106 -18.66867,-0.009 -27.99791,0.0473 -1.03441,0.26783 -1.23299,1.51197 -1.07348,2.41798 0.0191,5.59866 -0.0559,11.1982 0.0663,16.79609 0.33676,1.08167 1.66225,1.14746 2.59687,1.01371 22.81407,7.3e-4 45.62815,0.0161 68.44219,-0.0254 1.10668,-0.18893 1.35799,-1.50249 1.17941,-2.43633 -0.0484,-5.6458 0.11169,-11.30618 -0.11105,-16.94258 -0.25887,-0.58579 -0.93235,-0.92229 -1.55469,-0.89257 z" /></g></svg>
