<?xml version="1.0" encoding="UTF-8" standalone="no"?>
<!-- Created with Inkscape (http://www.inkscape.org/) -->

<svg
   width="77.719284mm"
   height="25.708607mm"
   viewBox="0 0 77.719284 25.708607"
   version="1.1"
   id="svg1"
   xml:space="preserve"
   sodipodi:docname="automatic-save-0-2026_01_20_20_34_53-18072-1.svg"
   xmlns:inkscape="http://www.inkscape.org/namespaces/inkscape"
   xmlns:sodipodi="http://sodipodi.sourceforge.net/DTD/sodipodi-0.dtd"
   xmlns:xlink="http://www.w3.org/1999/xlink"
   xmlns="http://www.w3.org/2000/svg"
   xmlns:svg="http://www.w3.org/2000/svg"><sodipodi:namedview
     id="namedview1"
     pagecolor="#ffffff"
     bordercolor="#000000"
     borderopacity="0.25"
     inkscape:showpageshadow="2"
     inkscape:pageopacity="0.0"
     inkscape:pagecheckerboard="0"
     inkscape:deskcolor="#d1d1d1"
     inkscape:document-units="mm"
     showgrid="true"><inkscape:grid
       id="grid81"
       units="px"
       originx="-806.54584"
       originy="-383.65958"
       spacingx="0.26458333"
       spacingy="0.26458333"
       empcolor="#0099e5"
       empopacity="0.30196078"
       color="#0099e5"
       opacity="0.14901961"
       empspacing="16"
       enabled="false"
       visible="true" /><inkscape:page
       x="0"
       y="0"
       width="77.719284"
       height="25.708607"
       id="page2"
       margin="0"
       bleed="0" /></sodipodi:namedview><defs
     id="defs1"><linearGradient
       id="linearGradient308"
       inkscape:collect="always"><stop
         style="stop-color:#0f1f63;stop-opacity:1;"
         offset="0"
         id="stop306" /><stop
         style="stop-color:#151f3b;stop-opacity:1;"
         offset="0.48635074"
         id="stop307" /><stop
         style="stop-color:#03070c;stop-opacity:1;"
         offset="1"
         id="stop308" /></linearGradient><linearGradient
       id="linearGradient300"
       inkscape:collect="always"><stop
         style="stop-color:#173ac4;stop-opacity:1;"
         offset="0"
         id="stop298" /><stop
         style="stop-color:#212e5f;stop-opacity:1;"
         offset="0.14632539"
         id="stop299" /><stop
         style="stop-color:#03070c;stop-opacity:1;"
         offset="1"
         id="stop300" /></linearGradient><linearGradient
       id="linearGradient5570"
       inkscape:collect="always"><stop
         style="stop-color:#6d6d6d;stop-opacity:1;"
         offset="0"
         id="stop5570" /><stop
         style="stop-color:#ffffff;stop-opacity:1;"
         offset="0.27665287"
         id="stop5574" /><stop
         style="stop-color:#515151;stop-opacity:1;"
         offset="0.64814204"
         id="stop5584" /><stop
         style="stop-color:#e7e7e7;stop-opacity:1;"
         offset="1"
         id="stop5571" /></linearGradient><filter
       inkscape:collect="always"
       style="color-interpolation-filters:sRGB"
       id="filter287"
       x="-0.014058806"
       y="-0.045171472"
       width="1.0281177"
       height="1.0903435"><feGaussianBlur
         inkscape:collect="always"
         stdDeviation="0.27544504"
         id="feGaussianBlur287" /></filter><filter
       inkscape:collect="always"
       style="color-interpolation-filters:sRGB"
       id="filter288"
       x="-0.0099129123"
       y="-0.03850684"
       width="1.0198247"
       height="1.0766789"><feGaussianBlur
         inkscape:collect="always"
         stdDeviation="0.16537118"
         id="feGaussianBlur288" /></filter><linearGradient
       inkscape:collect="always"
       xlink:href="#linearGradient308"
       id="linearGradient303"
       gradientUnits="userSpaceOnUse"
       gradientTransform="translate(0.79374999,-69.05625)"
       x1="808.11884"
       y1="455.10825"
       x2="808.11884"
       y2="474.36594" /><linearGradient
       inkscape:collect="always"
       xlink:href="#linearGradient300"
       id="linearGradient304"
       gradientUnits="userSpaceOnUse"
       gradientTransform="translate(0.79374999,-69.05625)"
       x1="808.11884"
       y1="455.10825"
       x2="808.11884"
       y2="474.36594" /><linearGradient
       inkscape:collect="always"
       xlink:href="#linearGradient5570"
       id="linearGradient305"
       gradientUnits="userSpaceOnUse"
       gradientTransform="translate(0.79374999,-69.05625)"
       x1="805.75214"
       y1="465.57013"
       x2="883.47137"
       y2="465.57013" /><linearGradient
       inkscape:collect="always"
       xlink:href="#linearGradient5570"
       id="linearGradient306"
       gradientUnits="userSpaceOnUse"
       gradientTransform="translate(0.79374999,-69.05625)"
       x1="805.75214"
       y1="465.57013"
       x2="883.47137"
       y2="465.57013" /></defs><g
     inkscape:label="Слой 1"
     inkscape:groupmode="layer"
     id="layer1"
     transform="translate(-806.54587,-383.65961)"><rect
       style="opacity:1;fill:#060f36;fill-opacity:1;stroke:url(#linearGradient306);stroke-width:1.2;stroke-linecap:round;stroke-linejoin:round;stroke-dasharray:none;stroke-dashoffset:0;stroke-opacity:1"
       id="rect300"
       width="76.519264"
       height="24.508615"
       x="807.14587"
       y="384.25958"
       ry="3.5546846" /><path
       id="path300"
       style="opacity:1;fill:url(#linearGradient304);fill-opacity:1;stroke:url(#linearGradient305);stroke-width:0.6;stroke-linecap:round;stroke-linejoin:round;stroke-dasharray:none;stroke-dashoffset:0;stroke-opacity:1"
       d="m 869.49805,386.9043 c -19.6927,0.0132 -39.38556,-0.0341 -59.07813,0.0488 -0.963,0.42219 -0.5854,1.66705 -0.62863,2.48868 0.014,5.36313 -0.0437,10.72697 0.0642,16.08945 0.47812,0.9419 1.72613,0.54478 2.57031,0.5899 22.62631,0.003 45.25262,0.0125 67.87891,-0.0254 0.93877,-0.26558 0.75489,-1.45881 0.71247,-2.20625 -0.0381,-5.49887 0.10192,-11.00017 -0.107,-16.49687 -0.59696,-0.84634 -1.77642,-0.3929 -2.64297,-0.50645 -2.92305,0.006 -5.8461,0.0121 -8.76914,0.0182 z" /><path
       id="path301"
       style="opacity:1;mix-blend-mode:normal;fill:none;fill-opacity:1;stroke:#000000;stroke-width:0.8;stroke-linecap:round;stroke-linejoin:round;stroke-dasharray:none;stroke-dashoffset:0;stroke-opacity:1;filter:url(#filter287)"
       d="m 810.3875,384.80509 c -1.6751,0.12699 -2.91961,1.79676 -2.71289,3.43711 0.013,5.76362 -0.026,11.5287 0.0195,17.2914 0.12679,1.67102 1.79525,2.91304 3.43125,2.70508 23.08625,-0.009 46.17333,0.0183 69.25906,-0.0137 1.69154,-0.10171 2.9606,-1.78476 2.7511,-3.43708 -0.0208,-5.79554 0.0416,-11.59532 -0.0312,-17.38823 -0.17639,-1.67881 -1.89098,-2.83537 -3.51956,-2.61021 -23.05292,0.009 -46.10668,-0.0185 -69.15906,0.0139 z" /><path
       id="path302"
       style="opacity:1;mix-blend-mode:normal;fill:none;fill-opacity:1;stroke:#000000;stroke-width:0.6;stroke-linecap:round;stroke-linejoin:round;stroke-dasharray:none;stroke-dashoffset:0;stroke-opacity:1;filter:url(#filter288)"
       d="m 879.33984,387.40234 c -16.32342,0.0684 -32.65308,0.007 -48.9789,0.0357 -6.60391,9.9e-4 -13.209,0.0249 -19.81211,0.0444 -0.53402,0.60728 -0.10959,1.52181 -0.22678,2.25703 -6.6e-4,5.2132 -0.0295,10.42677 0.0608,15.63946 0.64928,0.52431 1.57694,0.10143 2.34297,0.21292 22.50412,10e-4 45.01389,0.0157 67.51445,-0.0371 0.5612,-0.54936 0.14555,-1.46449 0.24781,-2.16406 -0.0236,-5.2643 0.0863,-10.53057 -0.10132,-15.79297 -0.27988,-0.25376 -0.70069,-0.19242 -1.04688,-0.19532 z" /><path
       id="path303"
       style="opacity:1;fill:url(#linearGradient303);fill-opacity:1;stroke:none;stroke-width:0.6;stroke-linecap:round;stroke-linejoin:round;stroke-dasharray:none;stroke-dashoffset:0;stroke-opacity:1"
       d="m 869.49805,386.9043 c -19.6927,0.0132 -39.38556,-0.0341 -59.07813,0.0488 -0.963,0.42219 -0.5854,1.66705 -0.62863,2.48868 0.014,5.36313 -0.0437,10.72697 0.0642,16.08945 0.47812,0.9419 1.72613,0.54478 2.57031,0.5899 22.62631,0.003 45.25262,0.0125 67.87891,-0.0254 0.93877,-0.26558 0.75489,-1.45881 0.71247,-2.20625 -0.0381,-5.49887 0.10192,-11.00017 -0.107,-16.49687 -0.59696,-0.84634 -1.77642,-0.3929 -2.64297,-0.50645 -2.92305,0.006 -5.8461,0.0121 -8.76914,0.0182 z" /></g></svg>
